<?xml version="1.0" standalone="no"?><!DOCTYPE svg PUBLIC "-//W3C//DTD SVG 1.1//EN" "http://www.w3.org/Graphics/SVG/1.1/DTD/svg11.dtd"><svg t="1639221018013" class="icon" viewBox="0 0 1024 1024" version="1.1" xmlns="http://www.w3.org/2000/svg" p-id="1735" xmlns:xlink="http://www.w3.org/1999/xlink" width="200" height="200"><defs><style type="text/css"></style></defs><path d="M864 64H256a128.14 128.14 0 0 0-128 128v736a32 32 0 0 0 32 32h256a32 32 0 0 0 32-32V768h416a32 32 0 0 0 32-32V480a32 32 0 0 0-32-32H448v-64h416a32 32 0 0 0 32-32V96a32 32 0 0 0-32-32z m-608 64h576v64H256a127.23 127.23 0 0 0-64 17.18V192a64.07 64.07 0 0 1 64-64z m192 576v-64h384v64z m-32-192h416v64H416a32 32 0 0 0-32 32v288h-64V384h64v96a32 32 0 0 0 32 32zM288 320a32 32 0 0 0-32 32v544h-64V320a64.07 64.07 0 0 1 64-64h576v64z" fill="#000000" p-id="1736"></path></svg>